<?xml version="1.0" standalone="no"?><!DOCTYPE svg PUBLIC "-//W3C//DTD SVG 1.1//EN" "http://www.w3.org/Graphics/SVG/1.1/DTD/svg11.dtd"><svg class="icon" height="512" viewBox="0 0 1024 1024" version="1.1" xmlns="http://www.w3.org/2000/svg"><path d="M94.527 649.391h91.937c23.001 0 30.639-18.5 30.639-30.818 0-12.326-9.191-30.822-30.639-30.822H94.527c-18.387 0-30.639 16.96-30.639 30.822 0 13.855 7.667 30.818 30.639 30.818z m0-215.846h91.937c23.001 0 30.639-18.496 30.639-30.818s-9.191-30.822-30.639-30.822H94.527c-18.387 0-30.639 16.964-30.639 30.822s7.667 30.818 30.639 30.818z m0-215.818h91.937c23.001 0 30.639-18.496 30.639-30.818 0-12.321-9.191-30.818-30.639-30.818H94.527c-18.387 0-30.639 16.956-30.639 30.818 0 13.858 7.667 30.818 30.639 30.818z m816.901-154.15H186.492c-22.996 0-45.969 23.135-45.969 46.241v15.423h45.969c35.249 0 61.306 24.671 61.306 61.668 0 36.993-26.057 61.668-61.306 61.668h-45.969v92.486h45.969c35.249 0 61.306 24.671 61.306 61.664s-26.057 61.664-61.306 61.664h-45.969v92.486h45.969c35.249 0 61.306 24.671 61.306 61.664 0 36.997-26.057 61.668-61.306 61.668h-45.969v92.486h45.969c35.249 0 61.306 24.671 61.306 61.664 0 36.997-26.057 61.668-61.306 61.668h-45.969v15.423c0 23.135 23 46.241 45.969 46.241h724.936c23.001 0 45.969-23.135 45.969-46.241V109.818c0-23.135-22.997-46.241-45.969-46.241z m-34.92 772.27c0 22.448-18.204 40.647-40.655 40.647H348.041c-22.452 0-40.651-18.2-40.651-40.647V185.425c0-22.452 18.2-40.655 40.651-40.655h487.812c22.452 0 40.655 18.204 40.655 40.655v650.422z m-659.377-1.488c0-12.317-9.191-30.818-30.639-30.818H94.555c-18.391 0-30.639 16.96-30.639 30.818s7.667 30.818 30.639 30.818h91.937c23.001 0 30.639-18.496 30.639-30.818zM728.2 638.497c-70.424-17.24-61.481-78.059-53.879-85.25 7.602-7.187 19.484-20.155 29.391-52.087 21.192-11.391 39.895-48.481 14.691-66.302 9.777-36.318 36.627-138.776-48.981-142.072 0-29.871-258.156-80.022-200.058 142.072-24.448 7.586-17.013 52.461 9.793 61.562 5.09 1.728 1.049 29.436 34.285 61.571 13.781 13.313 1.919 73.315-44.082 80.506-46.005 7.187-130.564 39.233-121.751 115.434 0.008 0.008 485.804 0 485.804 0s27.185-83.027-105.213-115.434z" /></svg>